<svg width="16" height="12" viewBox="0 0 16 12" fill="none" xmlns="http://www.w3.org/2000/svg">
<path d="M13.2062 1.00509C12.2211 0.52902 11.1807 0.19109 10.1117 0C9.96624 0.276806 9.83412 0.560293 9.71533 0.850461C8.57701 0.669227 7.41918 0.669227 6.28086 0.850461C6.16219 0.560588 6.02991 0.277071 5.8845 0.000954433C4.81472 0.193482 3.77349 0.532017 2.78729 1.00795C0.829147 4.06618 0.298248 7.049 0.563698 9.98886C1.7097 10.8827 2.99352 11.563 4.35908 12C4.66695 11.5628 4.93785 11.1015 5.17179 10.616C4.72816 10.4405 4.29989 10.225 3.89181 9.97168C3.99969 9.88896 4.10423 9.80592 4.20544 9.72256C5.39167 10.3118 6.68762 10.6175 7.99991 10.6175C9.3122 10.6175 10.6082 10.3118 11.7944 9.72256C11.8974 9.81164 12.002 9.89437 12.108 9.97073C11.6977 10.2259 11.2705 10.4416 10.8262 10.6179C11.0595 11.1028 11.3301 11.5635 11.638 12C13.0051 11.5653 14.2902 10.8852 15.4361 9.98982C15.7479 6.58034 14.9043 3.6252 13.2062 1.00509ZM5.50905 8.18104C4.76907 8.18104 4.15817 7.47184 4.15817 6.60038C4.15817 5.72892 4.74816 5.014 5.50633 5.014C6.26449 5.014 6.87175 5.72892 6.85903 6.60038C6.8463 7.47184 6.26268 8.18104 5.50905 8.18104ZM10.4926 8.18104C9.7517 8.18104 9.14262 7.47184 9.14262 6.60038C9.14262 5.72892 9.73351 5.014 10.4926 5.014C11.2517 5.014 11.8544 5.72892 11.8407 6.60038C11.8271 7.47184 11.2462 8.18104 10.4926 8.18104Z" fill="white"/>
</svg>
