<svg width="17" height="16" viewBox="0 0 17 16" fill="none" xmlns="http://www.w3.org/2000/svg">
<path fill-rule="evenodd" clip-rule="evenodd" d="M15.158 0C15.6516 0 16.1085 0.260491 16.34 0.683942C16.5618 1.08955 16.5524 1.56752 16.3155 1.96427L16.3074 1.97757L14.2303 5.36597C13.9954 5.7491 13.5714 5.98827 13.1182 5.99338L13.1034 5.99344H10.7316L11.7173 8.19436L11.7213 8.20084L11.7273 8.21124C11.9595 8.6204 11.9538 9.10692 11.7131 9.51006L11.705 9.52347L9.62794 12.9118C9.39301 13.295 8.969 13.5341 8.51584 13.5392L8.50102 13.5393L5.58985 13.5393L3.49707 15.6919L3.49311 15.6959C3.29618 15.8911 3.03009 16 2.75267 16C2.68332 16 2.61392 15.9932 2.54527 15.9795C2.20686 15.9121 1.9257 15.6857 1.79036 15.3734L1.78654 15.3645L0.685207 12.899L0.679414 12.8895L0.673397 12.8794C0.672398 12.8776 0.671381 12.8758 0.670319 12.874C0.438155 12.4648 0.443776 11.9783 0.684512 11.5751L0.692624 11.5617L2.70716 8.27535L1.22275 4.9613L1.24995 4.94777L1.24954 4.94578C1.18673 4.64097 1.23729 4.32308 1.3986 4.04464L1.40751 4.02947L1.41574 4.01588L3.49281 0.627459C3.72773 0.244333 4.15175 0.00518345 4.60492 0H4.61973H15.158ZM4.25171 13.5135H2.04483L2.69302 14.9758L2.69461 14.9796C2.70535 15.0058 2.72273 15.0201 2.7486 15.0253C2.77168 15.03 2.79035 15.0252 2.808 15.0095L2.81109 15.0066L4.25171 13.5135ZM10.5606 8.4865H3.88963C3.88226 8.4865 3.8749 8.48672 3.86754 8.48724L3.86552 8.48735L5.69463 12.5676H8.50068C8.61602 12.5676 8.72718 12.5074 8.79033 12.4106L8.79533 12.4027L10.8754 9.01223C10.9375 8.91112 10.9443 8.79375 10.8952 8.68815C10.8385 8.56641 10.7069 8.4865 10.5606 8.4865ZM3.19618 9.32432L1.54529 12.0378C1.4796 12.1459 1.4758 12.2723 1.53462 12.3837L1.54086 12.395L1.54419 12.4005L1.55085 12.4111L1.56405 12.4303L1.57879 12.449L1.59289 12.4647L1.59534 12.4672L1.60487 12.4767L1.61316 12.4843C1.66509 12.5303 1.72928 12.5584 1.80009 12.5656L1.816 12.5669L1.8252 12.5674L1.83687 12.5676H4.63793L3.19618 9.32432ZM2.76207 5.99997L3.48712 7.62162L3.50125 7.6169C3.62646 7.57604 3.75738 7.55393 3.88972 7.55189L3.90959 7.55177L10.3759 7.55171L9.68208 6.00003L2.76207 5.99997ZM15.1396 0.945946H8.44481L10.2745 5.02705H13.0795C13.1951 5.02705 13.3063 4.96675 13.3695 4.87002L13.3745 4.86206L15.4548 1.47167C15.5168 1.37056 15.5237 1.2533 15.4745 1.1478C15.419 1.02853 15.2916 0.949367 15.1489 0.946054L15.1396 0.945946ZM7.41998 0.945946H4.63047C4.51576 0.945946 4.40512 1.00606 4.34214 1.10269L4.33714 1.1106L2.26242 4.50104C2.20048 4.60226 2.19363 4.7198 2.24275 4.82551C2.29808 4.9447 2.42473 5.02359 2.56662 5.02694L2.5759 5.02705H9.24482L7.41998 0.945946Z" fill="#7333FF"/>
</svg>
