<svg width="16" height="16" viewBox="0 0 16 16" fill="none" xmlns="http://www.w3.org/2000/svg">
<path d="M8 0.5C12.144 0.5 15.5 3.9408 15.5 8.18952C15.5 9.8009 15.0068 11.3717 14.0901 12.6805C13.1734 13.9894 11.8792 14.9704 10.39 15.4853C10.016 15.5622 9.875 15.3213 9.875 15.1193C9.875 14.8599 9.885 14.0336 9.885 13.0052C9.885 12.2844 9.65 11.8231 9.378 11.5821C11.047 11.3904 12.8 10.7363 12.8 7.78557C12.8 6.93972 12.51 6.25791 12.031 5.71965C12.106 5.5269 12.369 4.73846 11.956 3.68141C11.956 3.68141 11.328 3.47021 9.894 4.46984C9.28333 4.29678 8.65257 4.20952 8.019 4.21045C7.38543 4.20952 6.75467 4.29678 6.144 4.46984C4.709 3.47943 4.081 3.68141 4.081 3.68141C3.669 4.73846 3.931 5.5269 4.006 5.71965C3.50192 6.28244 3.2268 7.02154 3.237 7.78557C3.237 10.7271 4.981 11.3904 6.65 11.5821C6.434 11.7749 6.237 12.1112 6.172 12.6105C5.741 12.8125 4.662 13.1395 3.988 11.9769C3.847 11.7462 3.425 11.1792 2.834 11.1884C2.206 11.1987 2.581 11.5534 2.844 11.698C3.162 11.8805 3.528 12.5633 3.612 12.7848C3.762 13.2164 4.25 14.0428 6.134 13.687C6.134 14.3319 6.144 14.9378 6.144 15.1193C6.144 15.3213 6.004 15.552 5.628 15.4853C4.13457 14.9749 2.83567 13.9956 1.91531 12.6861C0.994949 11.3767 0.499796 9.80353 0.5 8.18952C0.5 3.9408 3.856 0.5 8 0.5Z" fill="white"/>
</svg>
