<svg width="30" height="30" viewBox="0 0 30 30" fill="none" xmlns="http://www.w3.org/2000/svg">
<g filter="url(#filter0_d_555_1823)">
<g clip-path="url(#clip0_555_1823)">
<rect x="1" y="1" width="28" height="28" rx="8" fill="#7333FF"/>
<rect opacity="0.5" x="1" y="1" width="28" height="28" fill="url(#paint0_linear_555_1823)"/>
<rect x="1" y="1" width="28" height="28" fill="url(#paint1_linear_555_1823)"/>
<path fill-rule="evenodd" clip-rule="evenodd" d="M18.5444 8.00237C16.6901 8.79708 14.4881 10.3218 12.405 12.4049C10.3218 14.4881 8.79709 16.6901 8.00238 18.5444C7.60421 19.4735 7.40386 20.2815 7.38593 20.9241C7.36805 21.5647 7.53016 21.974 7.77808 22.2219C8.02599 22.4698 8.43529 22.632 9.07589 22.6141C9.71851 22.5961 10.5265 22.3958 11.4556 21.9976C13.3099 21.2029 15.5119 19.6782 17.595 17.595C19.6782 15.5119 21.2029 13.3099 21.9976 11.4556C22.3958 10.5265 22.5961 9.7185 22.6141 9.07589C22.6319 8.43528 22.4698 8.02598 22.2219 7.77807C21.974 7.53016 21.5647 7.36804 20.9241 7.38592C20.2815 7.40385 19.4735 7.6042 18.5444 8.00237ZM20.8855 6.00184C21.7634 5.97734 22.5971 6.19513 23.201 6.799C23.8049 7.40287 24.0227 8.2366 23.9982 9.11451C23.9737 9.99041 23.7094 10.9764 23.2703 12.001C22.3904 14.0541 20.7499 16.3983 18.5741 18.5741C16.3983 20.7499 14.0541 22.3904 12.001 23.2703C10.9764 23.7094 9.99041 23.9737 9.11451 23.9982C8.2366 24.0227 7.40287 23.8049 6.799 23.201C6.19513 22.5971 5.97734 21.7634 6.00184 20.8855C6.02628 20.0096 6.29058 19.0236 6.72971 17.999C7.60959 15.9459 9.25008 13.6017 11.4259 11.4259C13.6017 9.25008 15.9459 7.6096 17.999 6.72971C19.0236 6.29058 20.0096 6.02628 20.8855 6.00184Z" fill="white"/>
<path fill-rule="evenodd" clip-rule="evenodd" d="M9.07589 7.38592C8.43529 7.36804 8.02599 7.53016 7.77808 7.77807C7.53016 8.02598 7.36805 8.43528 7.38593 9.07589C7.40386 9.71851 7.60421 10.5265 8.00238 11.4556C8.79709 13.3099 10.3218 15.5119 12.405 17.595C14.4881 19.6782 16.6901 21.2029 18.5444 21.9976C19.4735 22.3958 20.2815 22.5961 20.9241 22.6141C21.5647 22.632 21.974 22.4698 22.2219 22.2219C22.4698 21.974 22.6319 21.5647 22.6141 20.9241C22.5961 20.2815 22.3958 19.4735 21.9976 18.5444C21.2029 16.6901 19.6782 14.4881 17.595 12.4049C15.5119 10.3218 13.3099 8.79708 11.4556 8.00237C10.5265 7.6042 9.71851 7.40385 9.07589 7.38592ZM12.001 6.72971C14.0541 7.6096 16.3983 9.25008 18.5741 11.4259C20.7499 13.6017 22.3904 15.9459 23.2703 17.999C23.7094 19.0236 23.9737 20.0096 23.9982 20.8855C24.0227 21.7634 23.8049 22.5971 23.201 23.201C22.5971 23.8049 21.7634 24.0227 20.8855 23.9982C20.0096 23.9737 19.0236 23.7094 17.999 23.2703C15.9459 22.3904 13.6017 20.7499 11.4259 18.5741C9.25008 16.3983 7.60959 14.0541 6.72971 12.001C6.29058 10.9764 6.02628 9.99041 6.00184 9.11451C5.97734 8.2366 6.19513 7.40287 6.799 6.799C7.40287 6.19513 8.2366 5.97734 9.11451 6.00184C9.99041 6.02628 10.9764 6.29058 12.001 6.72971Z" fill="white" fill-opacity="0.4"/>
<ellipse cx="15" cy="15" rx="1.84617" ry="1.84616" fill="white" fill-opacity="0.4"/>
</g>
</g>
<defs>
<filter id="filter0_d_555_1823" x="0" y="0" width="30" height="30" filterUnits="userSpaceOnUse" color-interpolation-filters="sRGB">
<feFlood flood-opacity="0" result="BackgroundImageFix"/>
<feColorMatrix in="SourceAlpha" type="matrix" values="0 0 0 0 0 0 0 0 0 0 0 0 0 0 0 0 0 0 127 0" result="hardAlpha"/>
<feMorphology radius="1" operator="dilate" in="SourceAlpha" result="effect1_dropShadow_555_1823"/>
<feOffset/>
<feComposite in2="hardAlpha" operator="out"/>
<feColorMatrix type="matrix" values="0 0 0 0 0.45098 0 0 0 0 0.2 0 0 0 0 1 0 0 0 1 0"/>
<feBlend mode="normal" in2="BackgroundImageFix" result="effect1_dropShadow_555_1823"/>
<feBlend mode="normal" in="SourceGraphic" in2="effect1_dropShadow_555_1823" result="shape"/>
</filter>
<linearGradient id="paint0_linear_555_1823" x1="15" y1="1" x2="15" y2="29" gradientUnits="userSpaceOnUse">
<stop stop-color="white" stop-opacity="0.2"/>
<stop offset="1" stop-color="white" stop-opacity="0"/>
</linearGradient>
<linearGradient id="paint1_linear_555_1823" x1="15" y1="1" x2="15" y2="29" gradientUnits="userSpaceOnUse">
<stop offset="0.46" stop-color="white" stop-opacity="0.1"/>
<stop offset="0.54" stop-color="white" stop-opacity="0"/>
</linearGradient>
<clipPath id="clip0_555_1823">
<rect x="1" y="1" width="28" height="28" rx="8" fill="white"/>
</clipPath>
</defs>
</svg>
