<svg width="94" height="18" viewBox="0 0 94 18" fill="none" xmlns="http://www.w3.org/2000/svg">
<path d="M3.58224 18C2.88307 18 2.30174 17.8842 1.83825 17.6525C1.37476 17.4128 1.00947 17.0692 0.742371 16.6218C0.475275 16.1744 0.282808 15.6352 0.164971 15.004C0.0549905 14.3728 0 13.6618 0 12.8708L2.49814 12.6312C2.49814 13.0146 2.50992 13.3862 2.53349 13.7457C2.56491 14.0972 2.61597 14.4168 2.68668 14.7044C2.76523 14.984 2.87522 15.2077 3.01662 15.3755C3.16588 15.5433 3.35442 15.6272 3.58224 15.6272C3.95931 15.6272 4.22641 15.4514 4.38352 15.0999C4.54064 14.7403 4.6192 14.3089 4.6192 13.8056C4.6192 13.3023 4.48958 12.779 4.23034 12.2357C3.9711 11.6924 3.66079 11.1771 3.29943 10.6897C2.68668 9.85886 2.14856 9.08788 1.68506 8.37683C1.22943 7.66578 0.871992 6.96671 0.612751 6.27963C0.361366 5.59254 0.235673 4.8735 0.235673 4.1225C0.235673 3.53129 0.310303 2.98802 0.459563 2.49268C0.608823 1.98935 0.824857 1.55393 1.10766 1.18642C1.39833 0.81092 1.74791 0.519309 2.15641 0.311586C2.56491 0.103862 3.03233 0 3.55867 0C4.2107 0 4.7606 0.111851 5.20838 0.335553C5.66402 0.559254 6.02931 0.878829 6.30426 1.29428C6.58707 1.70972 6.79132 2.20506 6.91701 2.78029C7.05056 3.34754 7.11734 3.9787 7.11734 4.67377L4.6192 4.91345C4.6192 4.61784 4.60349 4.32224 4.57206 4.02663C4.5485 3.72304 4.50136 3.4474 4.43066 3.19973C4.35996 2.95206 4.25783 2.75233 4.12428 2.60053C3.99074 2.44874 3.81791 2.37284 3.6058 2.37284C3.27586 2.37284 3.04804 2.51665 2.92235 2.80426C2.79666 3.08389 2.73381 3.48336 2.73381 4.00266C2.73381 4.67377 2.91057 5.32091 3.26408 5.94408C3.61759 6.56724 4.09286 7.29427 4.6899 8.12517C5.40478 9.10786 5.9861 10.0107 6.43388 10.8336C6.88952 11.6565 7.11734 12.5672 7.11734 13.5659C7.11734 14.1971 7.05056 14.7843 6.91701 15.3276C6.78347 15.8629 6.57136 16.3302 6.2807 16.7297C5.99789 17.1292 5.63259 17.4407 5.18481 17.6644C4.74489 17.8882 4.2107 18 3.58224 18ZM8.48167 17.8083V0.191745H11.7104L13.1009 9.32357L13.2187 10.2583H13.2659L13.3837 9.32357L14.7742 0.191745H18.0029V17.8083H15.6462V5.99201H15.5048L15.4105 6.73502L13.9022 17.8083H12.5824L11.0741 6.73502L10.9798 5.99201H10.8384V17.8083H8.48167ZM19.3669 17.8083L21.9828 0.191745H25.0937L27.7097 17.8083H25.2351L24.7638 14.213H22.3128L21.8414 17.8083H19.3669ZM22.6663 11.4807H24.4103L23.6797 5.56059L23.609 4.62583H23.4676L23.3969 5.56059L22.6663 11.4807ZM29.0571 17.8083V0.191745H31.6023C33.1264 0.191745 34.2497 0.623169 34.9725 1.48602C35.6952 2.34088 36.0566 3.6032 36.0566 5.27297C36.0566 6.26365 35.8837 7.1225 35.5381 7.84953C35.2003 8.56858 34.7878 9.09587 34.3008 9.43143L36.033 17.8083H33.4877L32.0501 10.3782H31.6023V17.8083H29.0571ZM31.6023 7.98136C32.0737 7.98136 32.4468 7.8775 32.7218 7.66978C32.9967 7.45406 33.1931 7.15047 33.311 6.75899C33.4288 6.36751 33.4877 5.90413 33.4877 5.36884C33.4877 4.52996 33.3502 3.88682 33.0753 3.43941C32.8082 2.98402 32.3172 2.75633 31.6023 2.75633V7.98136ZM39.1774 17.8083V2.8522H36.7735V0.191745H44.1265V2.8522H41.7226V17.8083H39.1774ZM52.0058 18C51.3066 18 50.7253 17.8842 50.2618 17.6525C49.7983 17.4128 49.433 17.0692 49.1659 16.6218C48.8988 16.1744 48.7063 15.6352 48.5885 15.004C48.4785 14.3728 48.4235 13.6618 48.4235 12.8708L50.9217 12.6312C50.9217 13.0146 50.9334 13.3862 50.957 13.7457C50.9884 14.0972 51.0395 14.4168 51.1102 14.7044C51.1888 14.984 51.2987 15.2077 51.4401 15.3755C51.5894 15.5433 51.7779 15.6272 52.0058 15.6272C52.3828 15.6272 52.6499 15.4514 52.807 15.0999C52.9642 14.7403 53.0427 14.3089 53.0427 13.8056C53.0427 13.3023 52.9131 12.779 52.6539 12.2357C52.3946 11.6924 52.0843 11.1771 51.7229 10.6897C51.1102 9.85886 50.5721 9.08788 50.1086 8.37683C49.6529 7.66578 49.2955 6.96671 49.0363 6.27963C48.7849 5.59254 48.6592 4.8735 48.6592 4.1225C48.6592 3.53129 48.7338 2.98802 48.8831 2.49268C49.0323 1.98935 49.2484 1.55393 49.5312 1.18642C49.8218 0.81092 50.1714 0.519309 50.5799 0.311586C50.9884 0.103862 51.4558 0 51.9822 0C52.6342 0 53.1841 0.111851 53.6319 0.335553C54.0875 0.559254 54.4528 0.878829 54.7278 1.29428C55.0106 1.70972 55.2148 2.20506 55.3405 2.78029C55.4741 3.34754 55.5409 3.9787 55.5409 4.67377L53.0427 4.91345C53.0427 4.61784 53.027 4.32224 52.9956 4.02663C52.972 3.72304 52.9249 3.4474 52.8542 3.19973C52.7835 2.95206 52.6814 2.75233 52.5478 2.60053C52.4143 2.44874 52.2414 2.37284 52.0293 2.37284C51.6994 2.37284 51.4716 2.51665 51.3459 2.80426C51.2202 3.08389 51.1573 3.48336 51.1573 4.00266C51.1573 4.67377 51.3341 5.32091 51.6876 5.94408C52.0411 6.56724 52.5164 7.29427 53.1134 8.12517C53.8283 9.10786 54.4096 10.0107 54.8574 10.8336C55.313 11.6565 55.5409 12.5672 55.5409 13.5659C55.5409 14.1971 55.4741 14.7843 55.3405 15.3276C55.207 15.8629 54.9949 16.3302 54.7042 16.7297C54.4214 17.1292 54.0561 17.4407 53.6083 17.6644C53.1684 17.8882 52.6342 18 52.0058 18ZM56.9052 17.8083V0.191745H59.4505C60.4167 0.191745 61.222 0.407458 61.8661 0.838882C62.5182 1.27031 63.0052 1.88149 63.3273 2.67244C63.6494 3.46338 63.8104 4.39414 63.8104 5.46471C63.8104 6.53529 63.6415 7.45806 63.3037 8.23302C62.9659 9.00799 62.471 9.61518 61.819 10.0546C61.1748 10.486 60.3853 10.7217 59.4505 10.7617V17.8083H56.9052ZM59.4505 8.12517C59.8983 8.12517 60.2518 8.03728 60.511 7.86152C60.7703 7.67776 60.9549 7.39015 61.0648 6.99867C61.1827 6.60719 61.2416 6.10386 61.2416 5.48868C61.2416 4.86551 61.1827 4.35819 61.0648 3.96671C60.9549 3.57523 60.7663 3.28762 60.4992 3.10386C60.24 2.92011 59.8904 2.82823 59.4505 2.82823V8.12517ZM65.1906 17.8083V0.191745H67.7359C69.2599 0.191745 70.3833 0.623169 71.106 1.48602C71.8287 2.34088 72.1901 3.6032 72.1901 5.27297C72.1901 6.26365 72.0173 7.1225 71.6716 7.84953C71.3338 8.56858 70.9214 9.09587 70.4343 9.43143L72.1665 17.8083H69.6213L68.1837 10.3782H67.7359V17.8083H65.1906ZM67.7359 7.98136C68.2072 7.98136 68.5804 7.8775 68.8553 7.66978C69.1303 7.45406 69.3267 7.15047 69.4445 6.75899C69.5623 6.36751 69.6213 5.90413 69.6213 5.36884C69.6213 4.52996 69.4838 3.88682 69.2088 3.43941C68.9417 2.98402 68.4507 2.75633 67.7359 2.75633V7.98136ZM73.6141 17.8083V0.191745H76.1593V17.8083H73.6141ZM78.0559 17.8083V0.191745H80.4362L82.793 9.37151L83.0051 10.1864H83.1465V0.191745H85.4796V17.8083H83.335L80.7426 8.6285L80.5305 7.81358H80.3891V17.8083H78.0559ZM89.0509 17.8083V2.8522H86.647V0.191745H94V2.8522H91.5961V17.8083H89.0509Z" fill="white"/>
</svg>
