<svg width="16" height="8" viewBox="0 0 16 8" fill="none" xmlns="http://www.w3.org/2000/svg">
<path d="M10.7799 5.78899V4.6168C10.9449 4.35944 11.1094 4.11786 11.2732 3.89208C11.4404 3.66456 11.6136 3.44162 11.7926 3.22351C11.9721 3.00417 12.1638 2.7778 12.3676 2.54442L14.4948 0.164948H15.9705L12.7489 3.74819L12.6725 3.7324L10.7799 5.78899ZM9.95474 7.82452V0.164948H11.1152V2.61198L11.0952 4.35973L11.1152 4.93529V7.82452H9.95474ZM14.6277 7.82452L12.0454 4.07721L12.7733 3.17701L16 7.82452H14.6259H14.6277ZM1.64425 8C1.35234 7.99826 1.06612 7.91833 0.814767 7.76837C0.570262 7.62018 0.365629 7.41347 0.218927 7.16648C0.0733774 6.91027 -0.00215998 6.61959 4.70109e-05 6.32419C4.70109e-05 6.01477 0.073007 5.73342 0.218927 5.48015C0.367742 5.22629 0.566355 5.0242 0.814767 4.87388C1.06437 4.7198 1.35175 4.63955 1.64425 4.64225H2.46332V3.3367H1.64425C1.34199 3.3367 1.06549 3.263 0.814767 3.1156C0.569639 2.96593 0.364951 2.75735 0.218927 2.50844C0.0733774 2.25223 -0.00215998 1.96155 4.70109e-05 1.66615C4.70109e-05 1.3579 0.073007 1.07831 0.218927 0.827374C0.368321 0.577612 0.566935 0.377276 0.814767 0.226365C1.06549 0.0754551 1.34199 0 1.64425 0C1.95289 0 2.23285 0.0754551 2.48416 0.226365C2.73547 0.377276 2.93553 0.577612 3.08434 0.827374C3.23721 1.07831 3.31365 1.35761 3.31365 1.66528V2.47774H4.60608V1.66528C4.60608 1.35702 4.68078 1.07772 4.83017 0.827374C4.97957 0.577027 5.17789 0.376691 5.42514 0.226365C5.67703 0.0754551 5.95526 0 6.25984 0C6.56558 0 6.84381 0.0754551 7.09454 0.226365C7.34584 0.377276 7.54446 0.577612 7.69038 0.827374C7.83977 1.07831 7.91447 1.35761 7.91447 1.66528C7.91447 1.97412 7.83977 2.25517 7.69038 2.50844C7.54667 2.75778 7.34137 2.96517 7.09454 3.11033C6.84323 3.26124 6.56529 3.3367 6.26071 3.3367H5.4512V4.64225H6.25984C6.56558 4.64225 6.84381 4.71946 7.09454 4.87388C7.34584 5.02479 7.54446 5.22688 7.69038 5.48015C7.83977 5.73459 7.91447 6.01565 7.91447 6.32332C7.91447 6.63216 7.83977 6.91321 7.69038 7.16648C7.54538 7.41981 7.33693 7.63013 7.08597 7.77628C6.83502 7.92244 6.55039 7.9993 6.26071 7.99912C5.95497 7.99912 5.67645 7.92367 5.42514 7.77276C5.18044 7.62322 4.97607 7.41497 4.83017 7.16648C4.6808 6.91163 4.60331 6.62035 4.60608 6.32419V5.51086H3.31365V6.32332C3.31365 6.63216 3.23721 6.91321 3.08434 7.16648C2.93642 7.41399 2.73025 7.62075 2.48416 7.76837C2.23228 7.9187 1.95231 7.99561 1.64425 7.99912V8ZM1.64425 7.14016C1.78875 7.13901 1.93053 7.10034 2.05596 7.02786C2.17867 6.95876 2.28069 6.85753 2.35127 6.73481C2.4256 6.61072 2.46467 6.46835 2.46418 6.32332V5.51086H1.64425C1.50226 5.50995 1.36288 5.54948 1.2421 5.62492C1.12373 5.69755 1.02426 5.79773 0.952001 5.91709C0.880712 6.04026 0.843793 6.18064 0.845167 6.32332C0.845167 6.47072 0.880778 6.60788 0.952001 6.73481C1.02415 6.85449 1.12362 6.95498 1.2421 7.02786C1.3637 7.0998 1.49775 7.13753 1.64425 7.14104V7.14016ZM1.64425 2.47774H2.46332V1.66528C2.46527 1.5221 2.42637 1.38137 2.35127 1.25993C2.27878 1.13872 2.17721 1.03793 2.05596 0.966879C1.93123 0.893158 1.78872 0.855803 1.64425 0.85896C1.50301 0.857572 1.36404 0.894866 1.2421 0.966879C1.12362 1.03976 1.02415 1.14024 0.952001 1.25993C0.880864 1.38284 0.84395 1.5229 0.845167 1.66528C0.84366 1.77195 0.863261 1.87785 0.90282 1.97676C0.942379 2.07568 1.0011 2.16561 1.07553 2.24129C1.14997 2.31697 1.23862 2.37687 1.33628 2.41747C1.43394 2.45808 1.53865 2.47856 1.64425 2.47774ZM5.4512 2.47774H6.25984C6.40095 2.47988 6.54005 2.44383 6.6627 2.37332C6.78535 2.30281 6.88707 2.20042 6.9573 2.07677C7.03133 1.95259 7.0701 1.81023 7.06935 1.66528C7.0713 1.5221 7.0324 1.38137 6.9573 1.25993C6.88707 1.13628 6.78535 1.03389 6.6627 0.963377C6.54005 0.892867 6.40095 0.856813 6.25984 0.85896C6.11888 0.856971 5.97996 0.893099 5.85748 0.963601C5.735 1.0341 5.63341 1.13641 5.56325 1.25993C5.48784 1.38128 5.44864 1.52201 5.45033 1.66528L5.4512 2.47774ZM6.25984 7.14104C6.40337 7.13915 6.54398 7.09986 6.66807 7.02698C6.78844 6.95725 6.88827 6.85641 6.9573 6.73481C7.03133 6.61063 7.0701 6.46827 7.06935 6.32332C7.07147 6.17984 7.03256 6.03879 6.9573 5.91709C6.88815 5.79506 6.78801 5.69389 6.6672 5.62404C6.54427 5.54926 6.40334 5.5101 6.25984 5.51086H5.4512V6.32332C5.4512 6.47072 5.48855 6.60788 5.56325 6.73481C5.63539 6.85449 5.73487 6.95498 5.85335 7.02786C5.97495 7.0998 6.11045 7.13753 6.25984 7.14104ZM3.31365 4.64225H4.60608V3.3367H3.31365V4.64225Z" fill="white" fill-opacity="0.48"/>
</svg>
